<svg xmlns="http://www.w3.org/2000/svg" viewbox="0 0 330 449" width="330" height="449"><defs><linearGradient id="11956460434563971503" x1="246.13332756970806" x2="245.77777744037263" y1="62.31111003512967" y2="213.066663973917" gradientTransform="matrix(0.008899157,0,0,0.006542917,-1.698091088,-0.469539138)"><stop stop-color="#1468eb" /><stop offset="1" stop-color="#03b3f7" /></linearGradient></defs><g transform="matrix(1,0,0,1,-84.702308867,-25.175174232)">
<g>
	<g>
		<g transform="matrix(2.942020356,0,0,2.942020356,-476.678759991,-185.952934268)">
			<path d="M265.869561,211.241008C265.869561,211.241008 265.869561,85.326485 265.869561,85.326485 C265.869561,85.326485 247.229637,71.762967 247.229637,71.762967 C247.229637,71.762967 227.856656,85.600808 227.856656,85.600808 C227.856656,85.600808 227.856656,210.916661 227.856656,210.916661 C227.856656,210.916661 247.111125,224.599996 247.111125,224.599996 C247.111125,224.599996 265.869561,211.241008 265.869561,211.241008 L 265.869561,211.241008 ZM277.099630,203.243415C277.099630,203.243415 303.185003,184.666485 303.185003,184.666485 C303.185003,184.666485 302.933341,112.296296 302.933341,112.296296 C302.933341,112.296296 277.211967,93.579894 277.211967,93.579894 C277.211967,93.579894 277.099630,203.243415 277.099630,203.243415 L 277.099630,203.243415 ZM216.628733,202.937452C216.628733,202.937452 216.514623,93.702261 216.514623,93.702261 C216.514623,93.702261 190.814815,112.059264 190.814815,112.059264 C190.814815,112.059264 190.814815,184.592592 190.814815,184.592592 C190.814815,184.592592 216.628733,202.937452 216.628733,202.937452 L 216.628733,202.937452 Z" transform="" fill="url('#11956460434563971503')"/>
		</g>
		<path d="" transform="matrix(1,0,0,1,0,18.002724641)" fill="none" stroke="#454445"/>
	</g>
</g></g></svg>